<svg width="240" height="39" viewBox="0 0 240 39" fill="none" xmlns="http://www.w3.org/2000/svg">
<rect width="39" height="39" rx="19.5" fill="#277BE5"/>
<path d="M29.7028 15.9712L13.3009 5.66062C11.5337 4.54912 9.58372 6.78919 10.9292 8.38575L19.3435 18.3795C19.7798 18.8987 19.8968 19.6153 19.6482 20.2466L19.3337 21.0437C19.2752 21.1924 19.0997 21.2606 18.9559 21.1875L12.8256 18.1114C12.6135 18.0041 12.4307 18.2966 12.6184 18.4404L17.6908 22.3282L18.561 22.9961L23.8455 27.0448L30.2342 19.2277C31.0727 18.2016 30.8217 16.6732 29.7004 15.9688L29.7028 15.9712Z" fill="#1D1D1B"/>
<path d="M17.9205 24.6269L17.6792 25.2387C17.6207 25.385 17.4549 25.4532 17.3111 25.3874L12.831 23.3375C12.6238 23.2424 12.4483 23.5203 12.6262 23.6666L15.5902 26.0992L15.8242 26.2893L21.0039 30.5232L23.846 27.0474L18.5396 24.3905C18.3032 24.2735 18.018 24.3832 17.9205 24.6269Z" fill="#1D1D1B"/>
<path d="M16.2824 28.7852L16.0314 29.4214C15.9753 29.5603 15.8193 29.631 15.6779 29.5749L12.5677 28.3684C12.3654 28.2904 12.2069 28.5487 12.3654 28.695L14.0424 30.2257L15.2709 31.347L18.169 33.9917L21.0063 30.5207L16.8967 28.5414C16.6627 28.4293 16.3799 28.539 16.2849 28.7827L16.2824 28.7852Z" fill="#1D1D1B"/>
<path d="M14.7297 32.9021C14.5347 34.5839 16.7724 35.7052 17.9765 34.2305L18.1715 33.9941L15.1953 32.6388C14.9905 32.5462 14.7565 32.6802 14.7297 32.9045V32.9021Z" fill="#1D1D1B"/>
<path d="M47.2925 29L56.711 8.08625H63.9358L73.3543 29H68.2648L66.2758 24.5832H54.371L52.382 29H47.2925ZM56.0675 20.7807H64.5793L60.5135 11.7425H60.1333L56.0675 20.7807ZM92.9184 29H88.6771V8.08625H92.9184V29ZM92.1871 29H82.0959C79.4829 29 77.4451 28.3565 75.9826 27.0695C74.5201 25.7825 73.7889 23.9203 73.7889 21.4828C73.7889 19.0257 74.5201 17.1537 75.9826 15.8667C77.4451 14.5797 79.4829 13.9362 82.0959 13.9362H91.8946V17.3H82.0959C80.8284 17.3 79.8534 17.651 79.1709 18.353C78.5079 19.0355 78.1764 20.0787 78.1764 21.4828C78.1764 22.8672 78.5079 23.9105 79.1709 24.6125C79.8534 25.295 80.8284 25.6362 82.0959 25.6362H92.1871V29ZM96.14 29V13.9362H107.665C109.361 13.9362 110.609 14.3652 111.409 15.2232C112.208 16.0617 112.608 17.1732 112.608 18.5577V21.6875H108.308V19.0842C108.308 17.9142 107.723 17.3292 106.553 17.3292H100.44V29H96.14ZM123.229 29.1463C120.616 29.1463 118.578 28.5027 117.115 27.2157C115.653 25.9092 114.922 23.9982 114.922 21.4828C114.922 18.9477 115.653 17.0367 117.115 15.7497C118.578 14.4432 120.616 13.79 123.229 13.79H130.541C132.257 13.79 133.564 14.1995 134.461 15.0185C135.377 15.818 135.835 16.9685 135.835 18.47C135.835 21.5315 134.071 23.0622 130.541 23.0622H119.485C119.894 24.8757 121.142 25.7825 123.229 25.7825H135.075V29.1463H123.229ZM123.229 17.1537C121.22 17.1537 119.982 18.002 119.514 19.6985H130.336C130.726 19.6985 131.029 19.5815 131.243 19.3475C131.477 19.1135 131.594 18.7917 131.594 18.3822C131.594 17.5632 131.175 17.1537 130.336 17.1537H123.229ZM138.473 29V13.9362H151.606C153.322 13.9362 154.57 14.3652 155.35 15.2232C156.149 16.0617 156.549 17.1732 156.549 18.5577V29H152.308V19.055C152.308 17.885 151.723 17.3 150.553 17.3H142.714V29H138.473ZM163.617 29C162.038 29 160.829 28.6002 159.99 27.8007C159.152 27.0012 158.733 25.8605 158.733 24.3785C158.733 22.916 159.152 21.785 159.99 20.9855C160.829 20.186 162.038 19.7862 163.617 19.7862H174.849V19.0842C174.849 17.8947 174.264 17.3 173.094 17.3H160.692V13.9362H174.206C175.98 13.9362 177.238 14.3457 177.979 15.1647C178.72 15.9642 179.091 17.0952 179.091 18.5577V29H163.617ZM164.378 25.6362H174.849V23.15H164.378C164.007 23.15 163.715 23.267 163.5 23.501C163.305 23.7155 163.208 24.008 163.208 24.3785C163.208 24.749 163.305 25.0512 163.5 25.2852C163.715 25.5192 164.007 25.6362 164.378 25.6362ZM182.319 29V8.08625H186.56V29H182.319ZM189.774 29V13.9362H194.016V29H189.774ZM189.745 11.45V8.14475H194.045V11.45H189.745ZM197.23 29V13.9362H210.363C212.079 13.9362 213.327 14.3652 214.107 15.2232C214.906 16.0617 215.306 17.1732 215.306 18.5577V29H211.065V19.055C211.065 17.885 210.48 17.3 209.31 17.3H201.471V29H197.23ZM218.367 29V8.08625H222.609V13.9362H232.729C234.445 13.9362 235.752 14.3457 236.649 15.1647C237.565 15.9642 238.023 17.1147 238.023 18.6162C238.023 21.0732 236.853 22.5357 234.513 23.0037L238.082 29H233.314L229.863 23.1792H222.609V29H218.367ZM232.524 17.2707H222.609V19.8447H232.524C232.914 19.8447 233.217 19.7277 233.431 19.4937C233.665 19.2597 233.782 18.938 233.782 18.5285C233.782 17.69 233.363 17.2707 232.524 17.2707Z" fill="black"/>
</svg>
