<svg width="39" height="39" viewBox="0 0 39 39" fill="none" xmlns="http://www.w3.org/2000/svg">
<rect width="39" height="39" rx="19.5" fill="#277BE5"/>
<path d="M29.7026 15.9712L13.3007 5.66062C11.5335 4.54912 9.58348 6.78919 10.929 8.38575L19.3432 18.3795C19.7795 18.8987 19.8965 19.6153 19.6479 20.2466L19.3335 21.0437C19.275 21.1924 19.0995 21.2606 18.9557 21.1875L12.8254 18.1114C12.6133 18.0041 12.4305 18.2966 12.6182 18.4404L17.6906 22.3282L18.5608 22.9961L23.8453 27.0448L30.234 19.2277C31.0725 18.2016 30.8214 16.6732 29.7002 15.9688L29.7026 15.9712Z" fill="#1D1D1B"/>
<path d="M17.9197 24.6269L17.6784 25.2387C17.6199 25.385 17.4542 25.4532 17.3104 25.3874L12.8302 23.3375C12.623 23.2424 12.4475 23.5203 12.6255 23.6666L15.5895 26.0992L15.8235 26.2893L21.0032 30.5232L23.8453 27.0474L18.5389 24.3905C18.3024 24.2735 18.0172 24.3832 17.9197 24.6269Z" fill="#1D1D1B"/>
<path d="M16.2817 28.7852L16.0306 29.4214C15.9746 29.5603 15.8186 29.631 15.6772 29.5749L12.5669 28.3684C12.3646 28.2904 12.2062 28.5487 12.3646 28.695L14.0416 30.2257L15.2701 31.347L18.1683 33.9917L21.0056 30.5207L16.8959 28.5414C16.6619 28.4293 16.3792 28.539 16.2841 28.7827L16.2817 28.7852Z" fill="#1D1D1B"/>
<path d="M14.729 32.9021C14.534 34.5839 16.7716 35.7052 17.9757 34.2305L18.1707 33.9941L15.1946 32.6388C14.9898 32.5462 14.7558 32.6802 14.729 32.9045V32.9021Z" fill="#1D1D1B"/>
</svg>
