<svg width="20" height="20" viewBox="0 0 20 20" fill="none" xmlns="http://www.w3.org/2000/svg">
<path d="M7.05781 4.19208C6.99974 4.13402 6.95368 4.06508 6.92225 3.98921C6.89083 3.91334 6.87465 3.83202 6.87465 3.7499C6.87465 3.66778 6.89083 3.58646 6.92225 3.51059C6.95368 3.43472 6.99974 3.36578 7.05781 3.30771C7.11588 3.24964 7.18482 3.20358 7.26069 3.17215C7.33656 3.14073 7.41788 3.12455 7.5 3.12455C7.58212 3.12455 7.66344 3.14073 7.73931 3.17215C7.81518 3.20358 7.88412 3.24964 7.94219 3.30771L14.1922 9.55771C14.2503 9.61576 14.2964 9.68469 14.3278 9.76056C14.3593 9.83643 14.3755 9.91776 14.3755 9.9999C14.3755 10.082 14.3593 10.1634 14.3278 10.2392C14.2964 10.3151 14.2503 10.384 14.1922 10.4421L7.94218 16.6921C7.82491 16.8094 7.66585 16.8752 7.5 16.8752C7.33414 16.8752 7.17508 16.8094 7.05781 16.6921C6.94053 16.5748 6.87465 16.4158 6.87465 16.2499C6.87465 16.084 6.94053 15.925 7.05781 15.8077L12.8664 9.9999L7.05781 4.19208Z" fill="#080621"/>
</svg>
