<svg width="36" height="36" viewBox="0 0 36 36" fill="none" xmlns="http://www.w3.org/2000/svg">
<g filter="url(#filter0_d_629_1584)">
<rect x="6" y="2" width="24" height="24" rx="5" fill="white"/>
<path d="M18 9.86902C18.6541 9.00887 19.7033 8.5 20.9018 8.5C21.8558 8.50106 22.7704 8.87573 23.4449 9.5418C24.1195 10.2079 24.4989 11.111 24.5 12.0529C24.5 16.0643 18.4765 19.3112 18.22 19.4453C18.1523 19.4812 18.0768 19.5 18 19.5C17.9232 19.5 17.8477 19.4812 17.78 19.4453C17.5235 19.3112 11.5 16.0643 11.5 12.0529C11.5011 11.111 11.8805 10.2079 12.5551 9.5418C13.2296 8.87573 14.1442 8.50106 15.0982 8.5C16.2967 8.5 17.3459 9.00887 18 9.86902Z" fill="#D11515"/>
</g>
<defs>
<filter id="filter0_d_629_1584" x="0" y="0" width="36" height="36" filterUnits="userSpaceOnUse" color-interpolation-filters="sRGB">
<feFlood flood-opacity="0" result="BackgroundImageFix"/>
<feColorMatrix in="SourceAlpha" type="matrix" values="0 0 0 0 0 0 0 0 0 0 0 0 0 0 0 0 0 0 127 0" result="hardAlpha"/>
<feOffset dy="4"/>
<feGaussianBlur stdDeviation="3"/>
<feComposite in2="hardAlpha" operator="out"/>
<feColorMatrix type="matrix" values="0 0 0 0 0 0 0 0 0 0 0 0 0 0 0 0 0 0 0.25 0"/>
<feBlend mode="normal" in2="BackgroundImageFix" result="effect1_dropShadow_629_1584"/>
<feBlend mode="normal" in="SourceGraphic" in2="effect1_dropShadow_629_1584" result="shape"/>
</filter>
</defs>
</svg>
