<svg width="52" height="52" viewBox="0 0 52 52" fill="none" xmlns="http://www.w3.org/2000/svg">
<rect width="52" height="52" rx="20" fill="#BDE28D" fill-opacity="0.5"/>
<path opacity="0.2" d="M26 13.7887C23.5136 13.7887 21.129 14.8423 19.3709 16.7176C17.6127 18.593 16.625 21.1365 16.625 23.7887C16.625 32.7887 26 39.7887 26 39.7887C26 39.7887 35.375 32.7887 35.375 23.7887C35.375 21.1365 34.3873 18.593 32.6291 16.7176C30.871 14.8423 28.4864 13.7887 26 13.7887ZM26 27.7887C25.2583 27.7887 24.5333 27.5541 23.9166 27.1146C23.2999 26.675 22.8193 26.0503 22.5355 25.3194C22.2516 24.5885 22.1774 23.7843 22.3221 23.0083C22.4667 22.2324 22.8239 21.5197 23.3483 20.9603C23.8728 20.4009 24.541 20.0199 25.2684 19.8656C25.9958 19.7112 26.7498 19.7904 27.4351 20.0932C28.1203 20.3959 28.706 20.9086 29.118 21.5664C29.5301 22.2242 29.75 22.9976 29.75 23.7887C29.75 24.8496 29.3549 25.867 28.6516 26.6171C27.9484 27.3673 26.9946 27.7887 26 27.7887Z" fill="black"/>
<path d="M34.4375 38.7887H28.6414C29.6151 37.8614 30.5333 36.8698 31.3906 35.8199C34.6074 31.8737 36.3125 27.7137 36.3125 23.7887C36.3125 20.8713 35.226 18.0734 33.292 16.0105C31.3581 13.9476 28.735 12.7887 26 12.7887C23.265 12.7887 20.6419 13.9476 18.708 16.0105C16.774 18.0734 15.6875 20.8713 15.6875 23.7887C15.6875 27.7137 17.3879 31.8737 20.6094 35.8199C21.4667 36.8698 22.3849 37.8614 23.3586 38.7887H17.5625C17.3139 38.7887 17.0754 38.8941 16.8996 39.0816C16.7238 39.2691 16.625 39.5235 16.625 39.7887C16.625 40.0539 16.7238 40.3083 16.8996 40.4958C17.0754 40.6833 17.3139 40.7887 17.5625 40.7887H34.4375C34.6861 40.7887 34.9246 40.6833 35.1004 40.4958C35.2762 40.3083 35.375 40.0539 35.375 39.7887C35.375 39.5235 35.2762 39.2691 35.1004 39.0816C34.9246 38.8941 34.6861 38.7887 34.4375 38.7887ZM17.5625 23.7887C17.5625 21.4017 18.4514 19.1126 20.0338 17.4247C21.6161 15.7369 23.7622 14.7887 26 14.7887C28.2378 14.7887 30.3839 15.7369 31.9662 17.4247C33.5486 19.1126 34.4375 21.4017 34.4375 23.7887C34.4375 30.9424 27.9371 36.9137 26 38.5387C24.0629 36.9137 17.5625 30.9424 17.5625 23.7887ZM30.6875 23.7887C30.6875 22.7998 30.4126 21.8331 29.8975 21.0108C29.3824 20.1886 28.6504 19.5477 27.7938 19.1693C26.9373 18.7909 25.9948 18.6918 25.0855 18.8848C24.1762 19.0777 23.341 19.5539 22.6854 20.2532C22.0299 20.9524 21.5834 21.8433 21.4026 22.8132C21.2217 23.7831 21.3145 24.7885 21.6693 25.7021C22.0241 26.6157 22.6249 27.3966 23.3958 27.946C24.1666 28.4955 25.0729 28.7887 26 28.7887C27.2432 28.7887 28.4355 28.2619 29.3146 27.3242C30.1936 26.3865 30.6875 25.1148 30.6875 23.7887ZM23.1875 23.7887C23.1875 23.1954 23.3525 22.6153 23.6615 22.122C23.9705 21.6286 24.4098 21.2441 24.9237 21.0171C25.4376 20.79 26.0031 20.7306 26.5487 20.8463C27.0943 20.9621 27.5954 21.2478 27.9887 21.6674C28.3821 22.0869 28.6499 22.6215 28.7585 23.2034C28.867 23.7854 28.8113 24.3886 28.5984 24.9367C28.3855 25.4849 28.0251 25.9535 27.5625 26.2831C27.1 26.6127 26.5563 26.7887 26 26.7887C25.2541 26.7887 24.5387 26.4726 24.0113 25.91C23.4838 25.3474 23.1875 24.5843 23.1875 23.7887Z" fill="black"/>
</svg>
