<svg width="8" height="28" viewBox="0 0 8 28" fill="none" xmlns="http://www.w3.org/2000/svg">
<path d="M3.78312 9.82628C3.03489 9.82628 2.30346 10.0568 1.68133 10.4887C1.0592 10.9206 0.574309 11.5344 0.287974 12.2527C0.00163916 12.9709 -0.0732791 13.7612 0.0726932 14.5236C0.218666 15.286 0.578973 15.9864 1.10805 16.5361C1.63713 17.0858 2.31122 17.4601 3.04507 17.6118C3.77892 17.7634 4.53958 17.6856 5.23085 17.3881C5.92213 17.0906 6.51297 16.5868 6.92866 15.9405C7.34436 15.2941 7.56623 14.5342 7.56623 13.7568C7.56623 12.7144 7.16766 11.7146 6.45818 10.9775C5.74871 10.2404 4.78646 9.82628 3.78312 9.82628ZM3.78312 14.7394C3.59606 14.7394 3.4132 14.6818 3.25767 14.5738C3.10214 14.4658 2.98092 14.3124 2.90933 14.1328C2.83775 13.9533 2.81902 13.7557 2.85551 13.5651C2.892 13.3745 2.98208 13.1994 3.11435 13.062C3.24662 12.9245 3.41514 12.831 3.5986 12.793C3.78207 12.7551 3.97223 12.7746 4.14505 12.849C4.31787 12.9233 4.46558 13.0493 4.5695 13.2109C4.67343 13.3725 4.7289 13.5624 4.7289 13.7568C4.7289 14.0174 4.62925 14.2673 4.45189 14.4516C4.27452 14.6359 4.03395 14.7394 3.78312 14.7394ZM3.78312 7.86103C4.53135 7.86103 5.26277 7.6305 5.8849 7.19861C6.50703 6.76672 6.99193 6.15286 7.27826 5.43466C7.5646 4.71645 7.63951 3.92615 7.49354 3.16371C7.34757 2.40126 6.98726 1.70091 6.45818 1.15122C5.92911 0.60153 5.25502 0.227185 4.52117 0.0755254C3.78731 -0.0761342 3.02666 0.00170301 2.33538 0.299194C1.64411 0.596685 1.05327 1.10047 0.637572 1.74684C0.221878 2.39321 2.04276e-06 3.15313 2.04276e-06 3.93051C2.04276e-06 4.97295 0.398579 5.97269 1.10805 6.7098C1.81752 7.44692 2.77977 7.86103 3.78312 7.86103ZM3.78312 2.94789C3.97018 2.94789 4.15303 3.00552 4.30856 3.11349C4.4641 3.22146 4.58532 3.37493 4.6569 3.55448C4.72849 3.73403 4.74722 3.9316 4.71072 4.12221C4.67423 4.31283 4.58415 4.48791 4.45189 4.62534C4.31962 4.76276 4.15109 4.85635 3.96763 4.89426C3.78417 4.93218 3.594 4.91272 3.42118 4.83834C3.24836 4.76397 3.10065 4.63802 2.99673 4.47643C2.89281 4.31484 2.83734 4.12486 2.83734 3.93051C2.83734 3.6699 2.93698 3.41997 3.11435 3.23569C3.29172 3.05141 3.53228 2.94789 3.78312 2.94789ZM3.78312 19.6526C3.03489 19.6526 2.30346 19.8831 1.68133 20.315C1.0592 20.7469 0.574309 21.3607 0.287974 22.0789C0.00163916 22.7971 -0.0732791 23.5874 0.0726932 24.3499C0.218666 25.1123 0.578973 25.8127 1.10805 26.3624C1.63713 26.9121 2.31122 27.2864 3.04507 27.4381C3.77892 27.5897 4.53958 27.5119 5.23085 27.2144C5.92213 26.9169 6.51297 26.4131 6.92866 25.7667C7.34436 25.1204 7.56623 24.3605 7.56623 23.5831C7.56623 22.5406 7.16766 21.5409 6.45818 20.8038C5.74871 20.0667 4.78646 19.6526 3.78312 19.6526ZM3.78312 24.5657C3.59606 24.5657 3.4132 24.5081 3.25767 24.4001C3.10214 24.2921 2.98092 24.1387 2.90933 23.9591C2.83775 23.7796 2.81902 23.582 2.85551 23.3914C2.892 23.2008 2.98208 23.0257 3.11435 22.8882C3.24662 22.7508 3.41514 22.6572 3.5986 22.6193C3.78207 22.5814 3.97223 22.6009 4.14505 22.6752C4.31787 22.7496 4.46558 22.8756 4.5695 23.0372C4.67343 23.1987 4.7289 23.3887 4.7289 23.5831C4.7289 23.8437 4.62925 24.0936 4.45189 24.2779C4.27452 24.4622 4.03395 24.5657 3.78312 24.5657Z" fill="#F6F6F6"/>
</svg>
