<svg width="50" height="50" viewBox="0 0 50 50" fill="none" xmlns="http://www.w3.org/2000/svg">
<path d="M25 3.44824C20.7374 3.44824 16.5706 4.71223 13.0265 7.08036C9.48232 9.44849 6.71998 12.8144 5.08878 16.7525C3.45758 20.6905 3.03078 25.0239 3.86236 29.2045C4.69394 33.3851 6.74654 37.2253 9.7606 40.2393C12.7747 43.2534 16.6148 45.306 20.7954 46.1376C24.9761 46.9691 29.3094 46.5424 33.2475 44.9112C37.1855 43.28 40.5514 40.5176 42.9196 36.9735C45.2877 33.4293 46.5517 29.2625 46.5517 25C46.5457 19.2859 44.2731 13.8077 40.2327 9.76726C36.1922 5.72683 30.714 3.45428 25 3.44824ZM25 43.236C21.3932 43.236 17.8675 42.1665 14.8686 40.1627C11.8696 38.1589 9.53228 35.3108 8.15204 31.9786C6.77179 28.6464 6.41066 24.9797 7.1143 21.4423C7.81794 17.9048 9.55476 14.6555 12.1051 12.1051C14.6555 9.55475 17.9048 7.81793 21.4423 7.11429C24.9797 6.41065 28.6464 6.77178 31.9786 8.15203C35.3108 9.53227 38.1589 11.8696 40.1627 14.8685C42.1665 17.8674 43.236 21.3932 43.236 25C43.2306 29.8348 41.3075 34.47 37.8888 37.8888C34.47 41.3075 29.8348 43.2305 25 43.236ZM15.053 20.8554C15.053 20.3636 15.1989 19.8828 15.4721 19.4738C15.7454 19.0649 16.1337 18.7462 16.5881 18.558C17.0425 18.3697 17.5425 18.3205 18.0249 18.4164C18.5073 18.5124 18.9504 18.7492 19.2981 19.097C19.6459 19.4448 19.8828 19.8879 19.9787 20.3703C20.0747 20.8526 20.0254 21.3526 19.8372 21.807C19.649 22.2614 19.3303 22.6498 18.9213 22.923C18.5124 23.1963 18.0316 23.3421 17.5398 23.3421C16.8802 23.3421 16.2477 23.0801 15.7814 22.6138C15.315 22.1474 15.053 21.5149 15.053 20.8554ZM34.9469 20.8554C34.9469 21.3472 34.8011 21.828 34.5278 22.237C34.2546 22.6459 33.8662 22.9646 33.4118 23.1528C32.9574 23.3411 32.4574 23.3903 31.975 23.2944C31.4927 23.1984 31.0496 22.9616 30.7018 22.6138C30.354 22.266 30.1172 21.8229 30.0212 21.3405C29.9253 20.8582 29.9745 20.3582 30.1627 19.9038C30.351 19.4494 30.6697 19.061 31.0786 18.7878C31.4876 18.5145 31.9684 18.3687 32.4602 18.3687C33.1197 18.3687 33.7522 18.6307 34.2186 19.097C34.6849 19.5634 34.9469 20.1959 34.9469 20.8554ZM34.7231 34.118C34.8431 34.3067 34.9236 34.5177 34.9599 34.7383C34.9962 34.9589 34.9875 35.1846 34.9343 35.4018C34.8811 35.619 34.7845 35.8231 34.6504 36.002C34.5162 36.1809 34.3473 36.3308 34.1537 36.4427C33.9601 36.5546 33.7459 36.6261 33.524 36.6531C33.302 36.6801 33.0769 36.6618 32.8621 36.5996C32.6474 36.5373 32.4475 36.4322 32.2744 36.2906C32.1014 36.149 31.9587 35.9739 31.8551 35.7758C30.3071 33.1005 27.8742 31.6313 25 31.6313C22.1257 31.6313 19.6929 33.1026 18.1449 35.7758C18.0412 35.9739 17.8986 36.149 17.7255 36.2906C17.5524 36.4322 17.3525 36.5373 17.1378 36.5996C16.9231 36.6618 16.6979 36.6801 16.476 36.6531C16.254 36.6261 16.0398 36.5546 15.8462 36.4427C15.6527 36.3308 15.4837 36.1809 15.3496 36.002C15.2154 35.8231 15.1189 35.619 15.0657 35.4018C15.0125 35.1846 15.0038 34.9589 15.04 34.7383C15.0763 34.5177 15.1569 34.3067 15.2768 34.118C17.4092 30.4314 20.9528 28.3156 25 28.3156C29.0471 28.3156 32.5907 30.4293 34.7231 34.118Z" fill="#636363"/>
</svg>
