<svg width="52" height="52" viewBox="0 0 52 52" fill="none" xmlns="http://www.w3.org/2000/svg">
<rect width="52" height="52" rx="20" fill="#8DD8E2" fill-opacity="0.5"/>
<path opacity="0.2" d="M32.2825 24.125H19.7177L20.3751 17.5625H31.6251L32.2825 24.125ZM33.5001 36.2234L32.9411 30.6875H19.0591L18.5001 36.2234C18.4876 36.3538 18.5027 36.4854 18.5442 36.6096C18.5857 36.7338 18.6528 36.848 18.7411 36.9447C18.8294 37.0414 18.937 37.1186 19.057 37.1712C19.177 37.2237 19.3066 37.2506 19.4376 37.25H32.5626C32.6936 37.2506 32.8232 37.2237 32.9432 37.1712C33.0632 37.1186 33.1708 37.0414 33.2591 36.9447C33.3474 36.848 33.4145 36.7338 33.456 36.6096C33.4975 36.4854 33.5125 36.3538 33.5001 36.2234Z" fill="#00010A"/>
<path d="M35.375 20.375C35.1264 20.375 34.8879 20.4738 34.7121 20.6496C34.5363 20.8254 34.4375 21.0639 34.4375 21.3125V23.1875H33.1309L32.5625 17.4688C32.5385 17.2333 32.4263 17.0156 32.2484 16.8594L27.2234 12.3922L27.2 12.3723C26.8631 12.0917 26.4385 11.938 26 11.938C25.5615 11.938 25.1369 12.0917 24.8 12.3723L24.7766 12.3922L19.7516 16.8594C19.5737 17.0156 19.4615 17.2333 19.4375 17.4688L18.8691 23.1875H17.5625V21.3125C17.5625 21.0639 17.4637 20.8254 17.2879 20.6496C17.1121 20.4738 16.8736 20.375 16.625 20.375C16.3764 20.375 16.1379 20.4738 15.9621 20.6496C15.7863 20.8254 15.6875 21.0639 15.6875 21.3125V24.125C15.6875 24.3737 15.7863 24.6121 15.9621 24.7879C16.1379 24.9637 16.3764 25.0625 16.625 25.0625H18.6805L17.5707 36.1344C17.5459 36.3945 17.5757 36.6569 17.6582 36.9048C17.7408 37.1527 17.8742 37.3806 18.0499 37.5739C18.2257 37.7672 18.4399 37.9217 18.6789 38.0273C18.9178 38.133 19.1762 38.1876 19.4375 38.1875H32.5625C32.8241 38.1875 33.0828 38.1327 33.322 38.0266C33.5611 37.9206 33.7755 37.7657 33.9512 37.5719C34.1269 37.3781 34.2601 37.1496 34.3422 36.9013C34.4244 36.6529 34.4536 36.3901 34.4281 36.1297L33.3195 25.0625H35.375C35.6236 25.0625 35.8621 24.9637 36.0379 24.7879C36.2137 24.6121 36.3125 24.3737 36.3125 24.125V21.3125C36.3125 21.0639 36.2137 20.8254 36.0379 20.6496C35.8621 20.4738 35.6236 20.375 35.375 20.375ZM26 13.8125L29.1641 16.625H22.8359L26 13.8125ZM21.2234 18.5H30.7766L31.2453 23.1875H26.9375V21.3125C26.9375 21.0639 26.8387 20.8254 26.6629 20.6496C26.4871 20.4738 26.2486 20.375 26 20.375C25.7514 20.375 25.5129 20.4738 25.3371 20.6496C25.1613 20.8254 25.0625 21.0639 25.0625 21.3125V23.1875H20.7535L21.2234 18.5ZM19.4375 36.3125L19.9062 31.625H32.0938L32.5625 36.3125H19.4375ZM31.9051 29.75H20.0949L20.5637 25.0625H31.434L31.9051 29.75Z" fill="#00010A"/>
</svg>
