<svg width="29" height="29" viewBox="0 0 29 29" fill="none" xmlns="http://www.w3.org/2000/svg">
<path d="M17.3418 11.9318C17.3418 12.2188 17.2278 12.494 17.0249 12.6969C16.822 12.8998 16.5468 13.0138 16.2598 13.0138H13.0138V16.2598C13.0138 16.5468 12.8998 16.822 12.6969 17.0249C12.494 17.2278 12.2188 17.3418 11.9318 17.3418C11.6449 17.3418 11.3697 17.2278 11.1668 17.0249C10.9638 16.822 10.8498 16.5468 10.8498 16.2598V13.0138H7.60386C7.3169 13.0138 7.04169 12.8998 6.83877 12.6969C6.63586 12.494 6.52186 12.2188 6.52186 11.9318C6.52186 11.6449 6.63586 11.3697 6.83877 11.1668C7.04169 10.9638 7.3169 10.8498 7.60386 10.8498H10.8498V7.60386C10.8498 7.3169 10.9638 7.04169 11.1668 6.83877C11.3697 6.63586 11.6449 6.52186 11.9318 6.52186C12.2188 6.52186 12.494 6.63586 12.6969 6.83877C12.8998 7.04169 13.0138 7.3169 13.0138 7.60386V10.8498H16.2598C16.5468 10.8498 16.822 10.9638 17.0249 11.1668C17.2278 11.3697 17.3418 11.6449 17.3418 11.9318ZM27.8453 27.8453C27.7448 27.9459 27.6255 28.0257 27.4941 28.0801C27.3628 28.1346 27.222 28.1626 27.0798 28.1626C26.9376 28.1626 26.7968 28.1346 26.6654 28.0801C26.5341 28.0257 26.4147 27.9459 26.3143 27.8453L19.5437 21.0733C17.1872 23.0361 14.1648 24.0149 11.1051 23.806C8.04542 23.5971 5.18405 22.2166 3.11625 19.9518C1.04844 17.6869 -0.0666007 14.7121 0.00307965 11.6461C0.07276 8.58005 1.3218 5.65892 3.49036 3.49036C5.65892 1.3218 8.58005 0.07276 11.6461 0.00307965C14.7121 -0.0666007 17.6869 1.04844 19.9518 3.11625C22.2166 5.18405 23.5971 8.04542 23.806 11.1051C24.0149 14.1648 23.0361 17.1872 21.0733 19.5437L27.8453 26.3143C27.9459 26.4147 28.0257 26.5341 28.0801 26.6654C28.1346 26.7968 28.1626 26.9376 28.1626 27.0798C28.1626 27.222 28.1346 27.3628 28.0801 27.4941C28.0257 27.6255 27.9459 27.7448 27.8453 27.8453ZM11.9318 21.6698C13.8578 21.6698 15.7406 21.0987 17.342 20.0287C18.9434 18.9586 20.1915 17.4378 20.9285 15.6584C21.6656 13.879 21.8584 11.921 21.4827 10.0321C21.1069 8.14308 20.1795 6.40794 18.8176 5.04607C17.4557 3.68419 15.7206 2.75674 13.8316 2.381C11.9426 2.00526 9.98466 2.1981 8.20529 2.93514C6.42591 3.67218 4.90505 4.92032 3.83503 6.52172C2.76501 8.12312 2.19388 10.0059 2.19388 11.9318C2.19675 14.5136 3.22363 16.9889 5.04923 18.8145C6.87483 20.6401 9.35005 21.6669 11.9318 21.6698Z" fill="#F6F6F6"/>
</svg>
