<svg width="52" height="52" viewBox="0 0 52 52" fill="none" xmlns="http://www.w3.org/2000/svg">
<rect width="52" height="52" rx="20" fill="#E28DAB" fill-opacity="0.5"/>
<path d="M12.3602 41.2111C13.8674 42.7184 15.8366 42.9736 18.4014 42.0012C22.595 40.3845 27.4086 36.8959 31.906 32.3985C40.3055 23.999 42.9796 17.4838 39.5396 14.0438C36.0997 10.6038 29.5722 13.2658 21.1728 21.6652C16.6753 26.1627 13.1989 30.9884 11.5822 35.182C10.5976 37.7346 10.865 39.7039 12.3602 41.2111ZM13.7459 39.8376C12.7127 38.7922 12.6397 37.3214 13.5028 35.413C15.399 31.3166 18.681 26.9163 22.5464 23.0388C29.9734 15.6118 35.577 12.8282 38.154 15.4173C40.7552 18.0064 37.9595 23.5979 30.5325 31.0249C26.6671 34.9025 22.2547 38.1723 18.1704 40.0685C16.262 40.9437 14.7791 40.8708 13.7459 39.8376ZM13.1442 39.6856C12.939 39.8908 12.9376 40.2232 13.1412 40.4302C13.3471 40.6395 13.6841 40.6409 13.8918 40.4333L38.6522 15.6847C38.8603 15.4766 38.8604 15.1392 38.6523 14.9311C38.4442 14.723 38.1068 14.723 37.8988 14.9311L13.1442 39.6856Z" fill="#0F0C0B"/>
</svg>
